WWE MONDAY NIGHT RAW 11 07 2011 bzingaz in flv format in 7 parts. please seed and comment!!

Details of one of files are:


Video
Format                           : AVC
Format/Info                      : Advanced Video Codec
Format profile                   : Main@L3.0
Format settings, CABAC           : Yes
Format settings, ReFrames        : 3 frames
Format settings, GOP             : M=1, N=47
Codec ID                         : 7
Duration                         : 14mn 20s
Bit rate                         : 743 Kbps
Width                            : 634 pixels
Height                           : 360 pixels
Display aspect ratio             : 16:9
Frame rate mode                  : Constant
Frame rate                       : 30.000 fps
Color space                      : YUV
Chroma subsampling               : 4:2:0
Bit depth                        : 8 bits
Scan type                        : Progressive
Bits/(Pixel*Frame)               : 0.108
Stream size                      : 76.2 MiB (84%)

Audio
Format                           : AAC
Format/Info                      : Advanced Audio Codec
Format profile                   : LC
Codec ID                         : 10
Duration                         : 14mn 20s
Bit rate                         : 129 Kbps
Channel(s)                       : 2 channels
Channel positions                : Front: L R
Sampling rate                    : 44.1 KHz
Compression mode                 : Lossy
Stream size                      : 13.2 MiB (15%)
